<mxfile host="app.diagrams.net" modified="2024-06-06T21:54:10.278Z" agent="Mozilla/5.0 (Windows NT 10.0; Win64; x64) AppleWebKit/537.36 (KHTML, like Gecko) Chrome/125.0.0.0 Safari/537.36" etag="AcBCbbkzQ9-YraRGZP26" version="24.5.1" type="device">
  <diagram name="Page-1" id="E6YMUaYKfEWk-xOYNXWC">
    <mxGraphModel dx="1563" dy="1889" grid="1" gridSize="10" guides="1" tooltips="1" connect="1" arrows="1" fold="1" page="1" pageScale="1" pageWidth="850" pageHeight="1100" math="0" shadow="0">
      <root>
        <mxCell id="0" />
        <mxCell id="1" parent="0" />
        <mxCell id="QFXuWkM9gua8gUhqy6tU-32" style="edgeStyle=orthogonalEdgeStyle;rounded=0;orthogonalLoop=1;jettySize=auto;html=1;exitX=0.5;exitY=0;exitDx=0;exitDy=0;" edge="1" parent="1" source="QFXuWkM9gua8gUhqy6tU-1">
          <mxGeometry relative="1" as="geometry">
            <mxPoint x="708" y="100" as="targetPoint" />
          </mxGeometry>
        </mxCell>
        <mxCell id="QFXuWkM9gua8gUhqy6tU-34" style="edgeStyle=orthogonalEdgeStyle;rounded=0;orthogonalLoop=1;jettySize=auto;html=1;exitX=0.5;exitY=1;exitDx=0;exitDy=0;" edge="1" parent="1" source="QFXuWkM9gua8gUhqy6tU-1">
          <mxGeometry relative="1" as="geometry">
            <mxPoint x="708" y="210" as="targetPoint" />
            <Array as="points">
              <mxPoint x="708" y="170" />
            </Array>
          </mxGeometry>
        </mxCell>
        <mxCell id="QFXuWkM9gua8gUhqy6tU-38" style="edgeStyle=orthogonalEdgeStyle;rounded=0;orthogonalLoop=1;jettySize=auto;html=1;exitX=0.75;exitY=0;exitDx=0;exitDy=0;" edge="1" parent="1" source="QFXuWkM9gua8gUhqy6tU-1">
          <mxGeometry relative="1" as="geometry">
            <mxPoint x="788" y="90" as="targetPoint" />
          </mxGeometry>
        </mxCell>
        <mxCell id="QFXuWkM9gua8gUhqy6tU-39" style="edgeStyle=orthogonalEdgeStyle;rounded=0;orthogonalLoop=1;jettySize=auto;html=1;exitX=0.942;exitY=1.14;exitDx=0;exitDy=0;exitPerimeter=0;" edge="1" parent="1" source="QFXuWkM9gua8gUhqy6tU-1">
          <mxGeometry relative="1" as="geometry">
            <mxPoint x="798" y="200" as="targetPoint" />
          </mxGeometry>
        </mxCell>
        <mxCell id="QFXuWkM9gua8gUhqy6tU-1" value="PRODUCTS" style="rounded=1;whiteSpace=wrap;html=1;fillColor=#ffe6cc;strokeColor=#d79b00;" vertex="1" parent="1">
          <mxGeometry x="678" y="120" width="120" height="50" as="geometry" />
        </mxCell>
        <mxCell id="QFXuWkM9gua8gUhqy6tU-58" style="edgeStyle=orthogonalEdgeStyle;rounded=0;orthogonalLoop=1;jettySize=auto;html=1;" edge="1" parent="1" source="QFXuWkM9gua8gUhqy6tU-16">
          <mxGeometry relative="1" as="geometry">
            <mxPoint x="230" y="132" as="targetPoint" />
          </mxGeometry>
        </mxCell>
        <mxCell id="QFXuWkM9gua8gUhqy6tU-60" style="edgeStyle=orthogonalEdgeStyle;rounded=0;orthogonalLoop=1;jettySize=auto;html=1;" edge="1" parent="1" source="QFXuWkM9gua8gUhqy6tU-16">
          <mxGeometry relative="1" as="geometry">
            <mxPoint x="230" y="242" as="targetPoint" />
          </mxGeometry>
        </mxCell>
        <mxCell id="QFXuWkM9gua8gUhqy6tU-61" value="EMAIL" style="edgeLabel;html=1;align=center;verticalAlign=middle;resizable=0;points=[];" vertex="1" connectable="0" parent="QFXuWkM9gua8gUhqy6tU-60">
          <mxGeometry x="1" y="9" relative="1" as="geometry">
            <mxPoint x="-12" y="8" as="offset" />
          </mxGeometry>
        </mxCell>
        <mxCell id="QFXuWkM9gua8gUhqy6tU-62" style="edgeStyle=orthogonalEdgeStyle;rounded=0;orthogonalLoop=1;jettySize=auto;html=1;exitX=0;exitY=0.5;exitDx=0;exitDy=0;" edge="1" parent="1" source="QFXuWkM9gua8gUhqy6tU-16">
          <mxGeometry relative="1" as="geometry">
            <mxPoint x="140" y="187" as="targetPoint" />
          </mxGeometry>
        </mxCell>
        <mxCell id="QFXuWkM9gua8gUhqy6tU-16" value="CUSTOMERS" style="rounded=0;whiteSpace=wrap;html=1;fillColor=#f8cecc;strokeColor=#b85450;" vertex="1" parent="1">
          <mxGeometry x="190" y="162" width="120" height="50" as="geometry" />
        </mxCell>
        <mxCell id="QFXuWkM9gua8gUhqy6tU-69" style="edgeStyle=orthogonalEdgeStyle;rounded=0;orthogonalLoop=1;jettySize=auto;html=1;" edge="1" parent="1" source="QFXuWkM9gua8gUhqy6tU-17">
          <mxGeometry relative="1" as="geometry">
            <mxPoint x="310" y="410" as="targetPoint" />
          </mxGeometry>
        </mxCell>
        <mxCell id="QFXuWkM9gua8gUhqy6tU-72" style="edgeStyle=orthogonalEdgeStyle;rounded=0;orthogonalLoop=1;jettySize=auto;html=1;exitX=1;exitY=0.5;exitDx=0;exitDy=0;" edge="1" parent="1">
          <mxGeometry relative="1" as="geometry">
            <mxPoint x="320" y="334" as="targetPoint" />
            <mxPoint x="290" y="334" as="sourcePoint" />
          </mxGeometry>
        </mxCell>
        <mxCell id="QFXuWkM9gua8gUhqy6tU-74" style="edgeStyle=orthogonalEdgeStyle;rounded=0;orthogonalLoop=1;jettySize=auto;html=1;exitX=0;exitY=0.5;exitDx=0;exitDy=0;" edge="1" parent="1">
          <mxGeometry relative="1" as="geometry">
            <mxPoint x="190" y="334" as="targetPoint" />
            <mxPoint x="210" y="334" as="sourcePoint" />
          </mxGeometry>
        </mxCell>
        <mxCell id="QFXuWkM9gua8gUhqy6tU-90" style="edgeStyle=orthogonalEdgeStyle;rounded=0;orthogonalLoop=1;jettySize=auto;html=1;" edge="1" parent="1" source="QFXuWkM9gua8gUhqy6tU-17">
          <mxGeometry relative="1" as="geometry">
            <mxPoint x="240" y="300" as="targetPoint" />
          </mxGeometry>
        </mxCell>
        <mxCell id="QFXuWkM9gua8gUhqy6tU-17" value="ORDERS" style="rhombus;whiteSpace=wrap;html=1;fillColor=#dae8fc;strokeColor=#6c8ebf;" vertex="1" parent="1">
          <mxGeometry x="200" y="300" width="80" height="80" as="geometry" />
        </mxCell>
        <mxCell id="QFXuWkM9gua8gUhqy6tU-44" style="edgeStyle=orthogonalEdgeStyle;rounded=0;orthogonalLoop=1;jettySize=auto;html=1;exitX=0.5;exitY=1;exitDx=0;exitDy=0;" edge="1" parent="1" source="QFXuWkM9gua8gUhqy6tU-18">
          <mxGeometry relative="1" as="geometry">
            <mxPoint x="738" y="420" as="targetPoint" />
          </mxGeometry>
        </mxCell>
        <mxCell id="QFXuWkM9gua8gUhqy6tU-45" value="PRODUCT_ID" style="edgeLabel;html=1;align=center;verticalAlign=middle;resizable=0;points=[];" vertex="1" connectable="0" parent="QFXuWkM9gua8gUhqy6tU-44">
          <mxGeometry x="1" y="8" relative="1" as="geometry">
            <mxPoint x="-8" y="55" as="offset" />
          </mxGeometry>
        </mxCell>
        <mxCell id="QFXuWkM9gua8gUhqy6tU-49" style="edgeStyle=orthogonalEdgeStyle;rounded=0;orthogonalLoop=1;jettySize=auto;html=1;exitX=0;exitY=0.5;exitDx=0;exitDy=0;" edge="1" parent="1" source="QFXuWkM9gua8gUhqy6tU-18">
          <mxGeometry relative="1" as="geometry">
            <mxPoint x="638" y="350" as="targetPoint" />
          </mxGeometry>
        </mxCell>
        <mxCell id="QFXuWkM9gua8gUhqy6tU-50" style="edgeStyle=orthogonalEdgeStyle;rounded=0;orthogonalLoop=1;jettySize=auto;html=1;exitX=1;exitY=0.5;exitDx=0;exitDy=0;" edge="1" parent="1" source="QFXuWkM9gua8gUhqy6tU-18">
          <mxGeometry relative="1" as="geometry">
            <mxPoint x="828" y="350" as="targetPoint" />
          </mxGeometry>
        </mxCell>
        <mxCell id="QFXuWkM9gua8gUhqy6tU-55" style="edgeStyle=orthogonalEdgeStyle;rounded=0;orthogonalLoop=1;jettySize=auto;html=1;" edge="1" parent="1" source="QFXuWkM9gua8gUhqy6tU-18">
          <mxGeometry relative="1" as="geometry">
            <mxPoint x="738" y="480" as="targetPoint" />
          </mxGeometry>
        </mxCell>
        <mxCell id="QFXuWkM9gua8gUhqy6tU-18" value="ORDER_ITEMS" style="ellipse;whiteSpace=wrap;html=1;fillColor=#f5f5f5;fontColor=#333333;strokeColor=#666666;" vertex="1" parent="1">
          <mxGeometry x="678" y="360" width="120" height="80" as="geometry" />
        </mxCell>
        <mxCell id="QFXuWkM9gua8gUhqy6tU-94" style="edgeStyle=orthogonalEdgeStyle;rounded=0;orthogonalLoop=1;jettySize=auto;html=1;" edge="1" parent="1" source="QFXuWkM9gua8gUhqy6tU-19">
          <mxGeometry relative="1" as="geometry">
            <mxPoint x="1060" y="70" as="targetPoint" />
          </mxGeometry>
        </mxCell>
        <mxCell id="QFXuWkM9gua8gUhqy6tU-103" style="edgeStyle=orthogonalEdgeStyle;rounded=0;orthogonalLoop=1;jettySize=auto;html=1;exitX=1;exitY=0.5;exitDx=0;exitDy=0;" edge="1" parent="1" source="QFXuWkM9gua8gUhqy6tU-19">
          <mxGeometry relative="1" as="geometry">
            <mxPoint x="1150" y="145" as="targetPoint" />
          </mxGeometry>
        </mxCell>
        <mxCell id="QFXuWkM9gua8gUhqy6tU-106" style="edgeStyle=orthogonalEdgeStyle;rounded=0;orthogonalLoop=1;jettySize=auto;html=1;" edge="1" parent="1" source="QFXuWkM9gua8gUhqy6tU-19">
          <mxGeometry relative="1" as="geometry">
            <mxPoint x="970" y="145" as="targetPoint" />
          </mxGeometry>
        </mxCell>
        <mxCell id="QFXuWkM9gua8gUhqy6tU-19" value="SUPPLIERS" style="shape=hexagon;perimeter=hexagonPerimeter2;whiteSpace=wrap;html=1;fixedSize=1;fillColor=#e1d5e7;strokeColor=#9673a6;" vertex="1" parent="1">
          <mxGeometry x="1000" y="105" width="120" height="80" as="geometry" />
        </mxCell>
        <mxCell id="QFXuWkM9gua8gUhqy6tU-96" style="edgeStyle=orthogonalEdgeStyle;rounded=0;orthogonalLoop=1;jettySize=auto;html=1;" edge="1" parent="1" source="QFXuWkM9gua8gUhqy6tU-20">
          <mxGeometry relative="1" as="geometry">
            <mxPoint x="1065" y="300" as="targetPoint" />
          </mxGeometry>
        </mxCell>
        <mxCell id="QFXuWkM9gua8gUhqy6tU-98" style="edgeStyle=orthogonalEdgeStyle;rounded=0;orthogonalLoop=1;jettySize=auto;html=1;" edge="1" parent="1" source="QFXuWkM9gua8gUhqy6tU-20">
          <mxGeometry relative="1" as="geometry">
            <mxPoint x="1065" y="470" as="targetPoint" />
          </mxGeometry>
        </mxCell>
        <mxCell id="QFXuWkM9gua8gUhqy6tU-101" style="edgeStyle=orthogonalEdgeStyle;rounded=0;orthogonalLoop=1;jettySize=auto;html=1;" edge="1" parent="1" source="QFXuWkM9gua8gUhqy6tU-20">
          <mxGeometry relative="1" as="geometry">
            <mxPoint x="1000" y="377.5" as="targetPoint" />
          </mxGeometry>
        </mxCell>
        <mxCell id="QFXuWkM9gua8gUhqy6tU-20" value="INVENTORY" style="shape=cylinder3;whiteSpace=wrap;html=1;boundedLbl=1;backgroundOutline=1;size=15;fillColor=#dae8fc;strokeColor=#6c8ebf;" vertex="1" parent="1">
          <mxGeometry x="1030" y="330" width="70" height="95" as="geometry" />
        </mxCell>
        <mxCell id="QFXuWkM9gua8gUhqy6tU-79" style="edgeStyle=orthogonalEdgeStyle;rounded=0;orthogonalLoop=1;jettySize=auto;html=1;" edge="1" parent="1" source="QFXuWkM9gua8gUhqy6tU-21">
          <mxGeometry relative="1" as="geometry">
            <mxPoint x="410" y="182" as="targetPoint" />
          </mxGeometry>
        </mxCell>
        <mxCell id="QFXuWkM9gua8gUhqy6tU-82" style="edgeStyle=orthogonalEdgeStyle;rounded=0;orthogonalLoop=1;jettySize=auto;html=1;" edge="1" parent="1" source="QFXuWkM9gua8gUhqy6tU-21">
          <mxGeometry relative="1" as="geometry">
            <mxPoint x="590" y="182" as="targetPoint" />
          </mxGeometry>
        </mxCell>
        <mxCell id="QFXuWkM9gua8gUhqy6tU-84" style="edgeStyle=orthogonalEdgeStyle;rounded=0;orthogonalLoop=1;jettySize=auto;html=1;" edge="1" parent="1" source="QFXuWkM9gua8gUhqy6tU-21">
          <mxGeometry relative="1" as="geometry">
            <mxPoint x="500" y="122" as="targetPoint" />
          </mxGeometry>
        </mxCell>
        <mxCell id="QFXuWkM9gua8gUhqy6tU-86" style="edgeStyle=orthogonalEdgeStyle;rounded=0;orthogonalLoop=1;jettySize=auto;html=1;" edge="1" parent="1" source="QFXuWkM9gua8gUhqy6tU-21">
          <mxGeometry relative="1" as="geometry">
            <mxPoint x="500" y="252" as="targetPoint" />
          </mxGeometry>
        </mxCell>
        <mxCell id="QFXuWkM9gua8gUhqy6tU-87" value="NAME" style="edgeLabel;html=1;align=center;verticalAlign=middle;resizable=0;points=[];" vertex="1" connectable="0" parent="QFXuWkM9gua8gUhqy6tU-86">
          <mxGeometry x="1" y="-9" relative="1" as="geometry">
            <mxPoint x="4" y="7" as="offset" />
          </mxGeometry>
        </mxCell>
        <mxCell id="QFXuWkM9gua8gUhqy6tU-21" value="PROMOTIONS" style="shape=parallelogram;perimeter=parallelogramPerimeter;whiteSpace=wrap;html=1;fixedSize=1;fillColor=#fff2cc;strokeColor=#d6b656;" vertex="1" parent="1">
          <mxGeometry x="440" y="152" width="120" height="60" as="geometry" />
        </mxCell>
        <mxCell id="QFXuWkM9gua8gUhqy6tU-120" style="edgeStyle=orthogonalEdgeStyle;rounded=0;orthogonalLoop=1;jettySize=auto;html=1;" edge="1" parent="1" source="QFXuWkM9gua8gUhqy6tU-22">
          <mxGeometry relative="1" as="geometry">
            <mxPoint x="1420" y="260" as="targetPoint" />
          </mxGeometry>
        </mxCell>
        <mxCell id="QFXuWkM9gua8gUhqy6tU-126" style="edgeStyle=orthogonalEdgeStyle;rounded=0;orthogonalLoop=1;jettySize=auto;html=1;" edge="1" parent="1" source="QFXuWkM9gua8gUhqy6tU-22">
          <mxGeometry relative="1" as="geometry">
            <mxPoint x="1330" y="322" as="targetPoint" />
          </mxGeometry>
        </mxCell>
        <mxCell id="QFXuWkM9gua8gUhqy6tU-128" style="edgeStyle=orthogonalEdgeStyle;rounded=0;orthogonalLoop=1;jettySize=auto;html=1;" edge="1" parent="1" source="QFXuWkM9gua8gUhqy6tU-22">
          <mxGeometry relative="1" as="geometry">
            <mxPoint x="1510" y="322" as="targetPoint" />
          </mxGeometry>
        </mxCell>
        <mxCell id="QFXuWkM9gua8gUhqy6tU-22" value="EMPLOYEES" style="shape=trapezoid;perimeter=trapezoidPerimeter;whiteSpace=wrap;html=1;fixedSize=1;fillColor=#b1ddf0;strokeColor=#10739e;" vertex="1" parent="1">
          <mxGeometry x="1360" y="292" width="120" height="60" as="geometry" />
        </mxCell>
        <mxCell id="QFXuWkM9gua8gUhqy6tU-130" style="edgeStyle=orthogonalEdgeStyle;rounded=0;orthogonalLoop=1;jettySize=auto;html=1;" edge="1" parent="1" source="QFXuWkM9gua8gUhqy6tU-23">
          <mxGeometry relative="1" as="geometry">
            <mxPoint x="1410" y="30" as="targetPoint" />
          </mxGeometry>
        </mxCell>
        <mxCell id="QFXuWkM9gua8gUhqy6tU-131" style="edgeStyle=orthogonalEdgeStyle;rounded=0;orthogonalLoop=1;jettySize=auto;html=1;exitX=0;exitY=0.5;exitDx=0;exitDy=0;exitPerimeter=0;" edge="1" parent="1" source="QFXuWkM9gua8gUhqy6tU-23">
          <mxGeometry relative="1" as="geometry">
            <mxPoint x="1330" y="117" as="targetPoint" />
          </mxGeometry>
        </mxCell>
        <mxCell id="QFXuWkM9gua8gUhqy6tU-132" style="edgeStyle=orthogonalEdgeStyle;rounded=0;orthogonalLoop=1;jettySize=auto;html=1;exitX=1;exitY=0.5;exitDx=0;exitDy=0;exitPerimeter=0;" edge="1" parent="1" source="QFXuWkM9gua8gUhqy6tU-23">
          <mxGeometry relative="1" as="geometry">
            <mxPoint x="1490" y="117" as="targetPoint" />
          </mxGeometry>
        </mxCell>
        <mxCell id="QFXuWkM9gua8gUhqy6tU-23" value="DEPARTMENTS" style="whiteSpace=wrap;html=1;shape=mxgraph.basic.octagon2;align=center;verticalAlign=middle;dx=15;fillColor=#d0cee2;strokeColor=#56517e;" vertex="1" parent="1">
          <mxGeometry x="1360" y="67" width="100" height="100" as="geometry" />
        </mxCell>
        <mxCell id="QFXuWkM9gua8gUhqy6tU-111" style="edgeStyle=orthogonalEdgeStyle;rounded=0;orthogonalLoop=1;jettySize=auto;html=1;" edge="1" parent="1" source="QFXuWkM9gua8gUhqy6tU-24">
          <mxGeometry relative="1" as="geometry">
            <mxPoint x="1430" y="440" as="targetPoint" />
          </mxGeometry>
        </mxCell>
        <mxCell id="QFXuWkM9gua8gUhqy6tU-113" style="edgeStyle=orthogonalEdgeStyle;rounded=0;orthogonalLoop=1;jettySize=auto;html=1;" edge="1" parent="1" source="QFXuWkM9gua8gUhqy6tU-24">
          <mxGeometry relative="1" as="geometry">
            <mxPoint x="1360" y="510" as="targetPoint" />
          </mxGeometry>
        </mxCell>
        <mxCell id="QFXuWkM9gua8gUhqy6tU-115" style="edgeStyle=orthogonalEdgeStyle;rounded=0;orthogonalLoop=1;jettySize=auto;html=1;" edge="1" parent="1" source="QFXuWkM9gua8gUhqy6tU-24">
          <mxGeometry relative="1" as="geometry">
            <mxPoint x="1520" y="510" as="targetPoint" />
          </mxGeometry>
        </mxCell>
        <mxCell id="QFXuWkM9gua8gUhqy6tU-24" value="SALES" style="whiteSpace=wrap;html=1;shape=mxgraph.basic.pentagon;fillColor=#b0e3e6;strokeColor=#0e8088;" vertex="1" parent="1">
          <mxGeometry x="1380" y="470" width="100" height="80" as="geometry" />
        </mxCell>
        <mxCell id="QFXuWkM9gua8gUhqy6tU-35" value="NAME" style="text;html=1;align=center;verticalAlign=middle;resizable=0;points=[];autosize=1;strokeColor=none;fillColor=none;" vertex="1" parent="1">
          <mxGeometry x="678" y="80" width="60" height="30" as="geometry" />
        </mxCell>
        <mxCell id="QFXuWkM9gua8gUhqy6tU-36" value="CATEGORY" style="text;html=1;align=center;verticalAlign=middle;resizable=0;points=[];autosize=1;strokeColor=none;fillColor=none;" vertex="1" parent="1">
          <mxGeometry x="750" y="70" width="90" height="30" as="geometry" />
        </mxCell>
        <mxCell id="QFXuWkM9gua8gUhqy6tU-37" value="PRICE" style="text;html=1;align=center;verticalAlign=middle;resizable=0;points=[];autosize=1;strokeColor=none;fillColor=none;" vertex="1" parent="1">
          <mxGeometry x="678" y="198" width="60" height="30" as="geometry" />
        </mxCell>
        <mxCell id="QFXuWkM9gua8gUhqy6tU-40" value="STOCK_QUQNTITY" style="text;html=1;align=center;verticalAlign=middle;resizable=0;points=[];autosize=1;strokeColor=none;fillColor=none;" vertex="1" parent="1">
          <mxGeometry x="758" y="200" width="130" height="30" as="geometry" />
        </mxCell>
        <mxCell id="QFXuWkM9gua8gUhqy6tU-43" value="ORDER_ID" style="text;html=1;align=center;verticalAlign=middle;resizable=0;points=[];autosize=1;strokeColor=none;fillColor=none;" vertex="1" parent="1">
          <mxGeometry x="588" y="325" width="90" height="30" as="geometry" />
        </mxCell>
        <mxCell id="QFXuWkM9gua8gUhqy6tU-47" value="QUANTITY" style="text;html=1;align=center;verticalAlign=middle;resizable=0;points=[];autosize=1;strokeColor=none;fillColor=none;" vertex="1" parent="1">
          <mxGeometry x="828" y="335" width="80" height="30" as="geometry" />
        </mxCell>
        <mxCell id="QFXuWkM9gua8gUhqy6tU-51" value="" style="edgeStyle=entityRelationEdgeStyle;fontSize=12;html=1;endArrow=ERzeroToMany;startArrow=ERmandOne;rounded=0;entryX=0.75;entryY=0;entryDx=0;entryDy=0;entryPerimeter=0;exitX=0.558;exitY=1.06;exitDx=0;exitDy=0;exitPerimeter=0;" edge="1" parent="1" source="QFXuWkM9gua8gUhqy6tU-1" target="QFXuWkM9gua8gUhqy6tU-18">
          <mxGeometry width="100" height="100" relative="1" as="geometry">
            <mxPoint x="748" y="100" as="sourcePoint" />
            <mxPoint x="798" y="190" as="targetPoint" />
            <Array as="points">
              <mxPoint x="728" y="180" />
              <mxPoint x="558" y="180" />
              <mxPoint x="798" y="230" />
              <mxPoint x="798" y="260" />
              <mxPoint x="788" y="230" />
            </Array>
          </mxGeometry>
        </mxCell>
        <mxCell id="QFXuWkM9gua8gUhqy6tU-56" value="" style="edgeStyle=entityRelationEdgeStyle;fontSize=12;html=1;endArrow=ERzeroToMany;startArrow=ERmandOne;rounded=0;entryX=0.45;entryY=-0.05;entryDx=0;entryDy=0;entryPerimeter=0;exitX=0.25;exitY=1;exitDx=0;exitDy=0;" edge="1" parent="1" source="QFXuWkM9gua8gUhqy6tU-1" target="QFXuWkM9gua8gUhqy6tU-18">
          <mxGeometry width="100" height="100" relative="1" as="geometry">
            <mxPoint x="718" y="170" as="sourcePoint" />
            <mxPoint x="988" y="250" as="targetPoint" />
            <Array as="points">
              <mxPoint x="998" y="220" />
              <mxPoint x="948" y="270" />
            </Array>
          </mxGeometry>
        </mxCell>
        <mxCell id="QFXuWkM9gua8gUhqy6tU-59" value="NAME" style="text;html=1;align=center;verticalAlign=middle;resizable=0;points=[];autosize=1;strokeColor=none;fillColor=none;" vertex="1" parent="1">
          <mxGeometry x="200" y="100" width="60" height="30" as="geometry" />
        </mxCell>
        <mxCell id="QFXuWkM9gua8gUhqy6tU-63" value="PHONE_NUMBER" style="text;html=1;align=center;verticalAlign=middle;resizable=0;points=[];autosize=1;strokeColor=none;fillColor=none;" vertex="1" parent="1">
          <mxGeometry x="20" y="172" width="120" height="30" as="geometry" />
        </mxCell>
        <mxCell id="QFXuWkM9gua8gUhqy6tU-73" value="TOTAL_AMOUNT" style="text;html=1;align=center;verticalAlign=middle;resizable=0;points=[];autosize=1;strokeColor=none;fillColor=none;" vertex="1" parent="1">
          <mxGeometry x="310" y="319" width="120" height="30" as="geometry" />
        </mxCell>
        <mxCell id="QFXuWkM9gua8gUhqy6tU-75" value="CUSTOMER_ID" style="text;html=1;align=center;verticalAlign=middle;resizable=0;points=[];autosize=1;strokeColor=none;fillColor=none;" vertex="1" parent="1">
          <mxGeometry x="80" y="322" width="110" height="30" as="geometry" />
        </mxCell>
        <mxCell id="QFXuWkM9gua8gUhqy6tU-76" value="" style="edgeStyle=entityRelationEdgeStyle;fontSize=12;html=1;endArrow=ERzeroToMany;startArrow=ERmandOne;rounded=0;entryX=0.638;entryY=0.066;entryDx=0;entryDy=0;entryPerimeter=0;" edge="1" parent="1" target="QFXuWkM9gua8gUhqy6tU-17">
          <mxGeometry width="100" height="100" relative="1" as="geometry">
            <mxPoint x="260" y="215" as="sourcePoint" />
            <mxPoint x="280" y="345" as="targetPoint" />
            <Array as="points">
              <mxPoint x="420" y="245" />
            </Array>
          </mxGeometry>
        </mxCell>
        <mxCell id="QFXuWkM9gua8gUhqy6tU-81" value="START_DATE" style="text;html=1;align=center;verticalAlign=middle;resizable=0;points=[];autosize=1;strokeColor=none;fillColor=none;" vertex="1" parent="1">
          <mxGeometry x="320" y="167" width="100" height="30" as="geometry" />
        </mxCell>
        <mxCell id="QFXuWkM9gua8gUhqy6tU-83" value="END_DATE" style="text;html=1;align=center;verticalAlign=middle;resizable=0;points=[];autosize=1;strokeColor=none;fillColor=none;" vertex="1" parent="1">
          <mxGeometry x="570" y="167" width="90" height="30" as="geometry" />
        </mxCell>
        <mxCell id="QFXuWkM9gua8gUhqy6tU-85" value="DISCOUNT" style="text;html=1;align=center;verticalAlign=middle;resizable=0;points=[];autosize=1;strokeColor=none;fillColor=none;" vertex="1" parent="1">
          <mxGeometry x="455" y="80" width="90" height="30" as="geometry" />
        </mxCell>
        <mxCell id="QFXuWkM9gua8gUhqy6tU-88" value="" style="edgeStyle=entityRelationEdgeStyle;fontSize=12;html=1;endArrow=ERzeroToMany;startArrow=ERmandOne;rounded=0;exitX=0;exitY=1;exitDx=0;exitDy=0;entryX=0.841;entryY=0.253;entryDx=0;entryDy=0;entryPerimeter=0;" edge="1" parent="1" source="QFXuWkM9gua8gUhqy6tU-21" target="QFXuWkM9gua8gUhqy6tU-17">
          <mxGeometry width="100" height="100" relative="1" as="geometry">
            <mxPoint x="380" y="312" as="sourcePoint" />
            <mxPoint x="290" y="334" as="targetPoint" />
            <Array as="points">
              <mxPoint x="320" y="162" />
              <mxPoint x="260" y="290" />
            </Array>
          </mxGeometry>
        </mxCell>
        <mxCell id="QFXuWkM9gua8gUhqy6tU-92" value="ORDER_DATE" style="text;html=1;align=center;verticalAlign=middle;resizable=0;points=[];autosize=1;strokeColor=none;fillColor=none;" vertex="1" parent="1">
          <mxGeometry x="250" y="408" width="100" height="30" as="geometry" />
        </mxCell>
        <mxCell id="QFXuWkM9gua8gUhqy6tU-93" value="" style="edgeStyle=entityRelationEdgeStyle;fontSize=12;html=1;endArrow=ERzeroToMany;startArrow=ERmandOne;rounded=0;exitX=0.5;exitY=1;exitDx=0;exitDy=0;entryX=0.077;entryY=0.769;entryDx=0;entryDy=0;entryPerimeter=0;" edge="1" parent="1" source="QFXuWkM9gua8gUhqy6tU-17" target="QFXuWkM9gua8gUhqy6tU-18">
          <mxGeometry width="100" height="100" relative="1" as="geometry">
            <mxPoint x="340" y="580" as="sourcePoint" />
            <mxPoint x="440" y="480" as="targetPoint" />
          </mxGeometry>
        </mxCell>
        <mxCell id="QFXuWkM9gua8gUhqy6tU-95" value="NAME" style="text;html=1;align=center;verticalAlign=middle;resizable=0;points=[];autosize=1;strokeColor=none;fillColor=none;" vertex="1" parent="1">
          <mxGeometry x="1030" y="48" width="60" height="30" as="geometry" />
        </mxCell>
        <mxCell id="QFXuWkM9gua8gUhqy6tU-100" value="SUPPLIER_ID" style="text;html=1;align=center;verticalAlign=middle;resizable=0;points=[];autosize=1;strokeColor=none;fillColor=none;" vertex="1" parent="1">
          <mxGeometry x="1020" y="468" width="100" height="30" as="geometry" />
        </mxCell>
        <mxCell id="QFXuWkM9gua8gUhqy6tU-102" value="QUANTITY" style="text;html=1;align=center;verticalAlign=middle;resizable=0;points=[];autosize=1;strokeColor=none;fillColor=none;" vertex="1" parent="1">
          <mxGeometry x="925" y="362.5" width="80" height="30" as="geometry" />
        </mxCell>
        <mxCell id="QFXuWkM9gua8gUhqy6tU-105" value="CONTACT_PERSON" style="text;html=1;align=center;verticalAlign=middle;resizable=0;points=[];autosize=1;strokeColor=none;fillColor=none;" vertex="1" parent="1">
          <mxGeometry x="1135" y="130" width="140" height="30" as="geometry" />
        </mxCell>
        <mxCell id="QFXuWkM9gua8gUhqy6tU-107" value="ADDRESS" style="text;html=1;align=center;verticalAlign=middle;resizable=0;points=[];autosize=1;strokeColor=none;fillColor=none;" vertex="1" parent="1">
          <mxGeometry x="888" y="128" width="80" height="30" as="geometry" />
        </mxCell>
        <mxCell id="QFXuWkM9gua8gUhqy6tU-108" value="" style="edgeStyle=entityRelationEdgeStyle;fontSize=12;html=1;endArrow=ERzeroToMany;startArrow=ERmandOne;rounded=0;exitX=0.446;exitY=0.988;exitDx=0;exitDy=0;exitPerimeter=0;" edge="1" parent="1" source="QFXuWkM9gua8gUhqy6tU-19" target="QFXuWkM9gua8gUhqy6tU-20">
          <mxGeometry width="100" height="100" relative="1" as="geometry">
            <mxPoint x="1225" y="289" as="sourcePoint" />
            <mxPoint x="1250" y="185" as="targetPoint" />
          </mxGeometry>
        </mxCell>
        <mxCell id="QFXuWkM9gua8gUhqy6tU-97" value="PRODUCT-ID" style="text;html=1;align=center;verticalAlign=middle;resizable=0;points=[];autosize=1;strokeColor=none;fillColor=none;" vertex="1" parent="1">
          <mxGeometry x="1015" y="280" width="100" height="30" as="geometry" />
        </mxCell>
        <mxCell id="QFXuWkM9gua8gUhqy6tU-110" value="" style="edgeStyle=entityRelationEdgeStyle;fontSize=12;html=1;endArrow=ERzeroToMany;startArrow=ERmandOne;rounded=0;exitX=0.143;exitY=0.211;exitDx=0;exitDy=0;exitPerimeter=0;entryX=1;entryY=0.5;entryDx=0;entryDy=0;" edge="1" parent="1" source="QFXuWkM9gua8gUhqy6tU-20" target="QFXuWkM9gua8gUhqy6tU-1">
          <mxGeometry width="100" height="100" relative="1" as="geometry">
            <mxPoint x="860" y="285" as="sourcePoint" />
            <mxPoint x="890" y="190" as="targetPoint" />
            <Array as="points">
              <mxPoint x="990" y="140" />
            </Array>
          </mxGeometry>
        </mxCell>
        <mxCell id="QFXuWkM9gua8gUhqy6tU-112" value="EMPLOYEE_ID" style="text;html=1;align=center;verticalAlign=middle;resizable=0;points=[];autosize=1;strokeColor=none;fillColor=none;" vertex="1" parent="1">
          <mxGeometry x="1380" y="420" width="110" height="30" as="geometry" />
        </mxCell>
        <mxCell id="QFXuWkM9gua8gUhqy6tU-114" value="ORDER_ID" style="text;html=1;align=center;verticalAlign=middle;resizable=0;points=[];autosize=1;strokeColor=none;fillColor=none;" vertex="1" parent="1">
          <mxGeometry x="1275" y="495" width="90" height="30" as="geometry" />
        </mxCell>
        <mxCell id="QFXuWkM9gua8gUhqy6tU-119" value="SALE_DATE" style="text;html=1;align=center;verticalAlign=middle;resizable=0;points=[];autosize=1;strokeColor=none;fillColor=none;" vertex="1" parent="1">
          <mxGeometry x="1510" y="490" width="90" height="30" as="geometry" />
        </mxCell>
        <mxCell id="QFXuWkM9gua8gUhqy6tU-121" value="NAME" style="text;html=1;align=center;verticalAlign=middle;resizable=0;points=[];autosize=1;strokeColor=none;fillColor=none;" vertex="1" parent="1">
          <mxGeometry x="1390" y="228" width="60" height="30" as="geometry" />
        </mxCell>
        <mxCell id="QFXuWkM9gua8gUhqy6tU-127" value="POSITION" style="text;html=1;align=center;verticalAlign=middle;resizable=0;points=[];autosize=1;strokeColor=none;fillColor=none;" vertex="1" parent="1">
          <mxGeometry x="1250" y="307" width="80" height="30" as="geometry" />
        </mxCell>
        <mxCell id="QFXuWkM9gua8gUhqy6tU-129" value="SALARY" style="text;html=1;align=center;verticalAlign=middle;resizable=0;points=[];autosize=1;strokeColor=none;fillColor=none;" vertex="1" parent="1">
          <mxGeometry x="1495" y="305" width="70" height="30" as="geometry" />
        </mxCell>
        <mxCell id="QFXuWkM9gua8gUhqy6tU-133" value="NAME" style="text;html=1;align=center;verticalAlign=middle;resizable=0;points=[];autosize=1;strokeColor=none;fillColor=none;" vertex="1" parent="1">
          <mxGeometry x="1380" y="-2" width="60" height="30" as="geometry" />
        </mxCell>
        <mxCell id="QFXuWkM9gua8gUhqy6tU-134" value="LOCATION" style="text;html=1;align=center;verticalAlign=middle;resizable=0;points=[];autosize=1;strokeColor=none;fillColor=none;" vertex="1" parent="1">
          <mxGeometry x="1475" y="98" width="80" height="30" as="geometry" />
        </mxCell>
        <mxCell id="QFXuWkM9gua8gUhqy6tU-135" value="" style="edgeStyle=entityRelationEdgeStyle;fontSize=12;html=1;endArrow=ERzeroToMany;startArrow=ERmandOne;rounded=0;entryX=0.25;entryY=0;entryDx=0;entryDy=0;exitX=0.385;exitY=1.02;exitDx=0;exitDy=0;exitPerimeter=0;" edge="1" parent="1" source="QFXuWkM9gua8gUhqy6tU-23" target="QFXuWkM9gua8gUhqy6tU-22">
          <mxGeometry width="100" height="100" relative="1" as="geometry">
            <mxPoint x="1360" y="180" as="sourcePoint" />
            <mxPoint x="1255" y="192" as="targetPoint" />
          </mxGeometry>
        </mxCell>
        <mxCell id="QFXuWkM9gua8gUhqy6tU-136" value="" style="edgeStyle=entityRelationEdgeStyle;fontSize=12;html=1;endArrow=ERzeroToMany;startArrow=ERmandOne;rounded=0;entryX=0.298;entryY=0.097;entryDx=0;entryDy=0;entryPerimeter=0;exitX=0.071;exitY=0.992;exitDx=0;exitDy=0;exitPerimeter=0;" edge="1" parent="1" source="QFXuWkM9gua8gUhqy6tU-22" target="QFXuWkM9gua8gUhqy6tU-24">
          <mxGeometry width="100" height="100" relative="1" as="geometry">
            <mxPoint x="1070" y="290" as="sourcePoint" />
            <mxPoint x="1170" y="190" as="targetPoint" />
          </mxGeometry>
        </mxCell>
        <mxCell id="QFXuWkM9gua8gUhqy6tU-137" value="" style="edgeStyle=entityRelationEdgeStyle;fontSize=12;html=1;endArrow=ERmandOne;startArrow=ERmandOne;rounded=0;exitX=0.735;exitY=0.16;exitDx=0;exitDy=0;exitPerimeter=0;entryX=0.873;entryY=1.096;entryDx=0;entryDy=0;entryPerimeter=0;" edge="1" parent="1" source="QFXuWkM9gua8gUhqy6tU-24" target="QFXuWkM9gua8gUhqy6tU-22">
          <mxGeometry width="100" height="100" relative="1" as="geometry">
            <mxPoint x="1370" y="455" as="sourcePoint" />
            <mxPoint x="1470" y="355" as="targetPoint" />
          </mxGeometry>
        </mxCell>
      </root>
    </mxGraphModel>
  </diagram>
</mxfile>
